<?xml version="1.0" encoding="utf-8"?>
<!-- Generator: Adobe Illustrator 24.1.2, SVG Export Plug-In . SVG Version: 6.00 Build 0)  -->
<svg version="1.1" id="icon" xmlns="http://www.w3.org/2000/svg" xmlns:xlink="http://www.w3.org/1999/xlink" x="0px" y="0px"
	 viewBox="0 0 512 512" style="enable-background:new 0 0 512 512;" xml:space="preserve">
<style type="text/css">
	.st0{fill:#E8E6DA;}
	.st1{fill:#D1CFC1;}
	.st2{fill:#2F3A5A;}
	.st3{fill:#E8E5DA;}
	.st4{fill:#D1CEC1;}
	.st5{opacity:0.9;}
	.st6{fill:#FFC943;}
	.st7{fill:#F7B521;}
	.st8{opacity:0.5;}
	.st9{fill:#FFFFFF;}
	.st10{fill:#EDE9DD;}
	.st11{fill:#E1E6E9;}
</style>
<path class="st0" d="M420.6,195.6h-56.8c-10.9,0-20.9,6.3-25.6,16.1c-2,3.9-3,8.2-3,12.6v183.1c0,6,1.9,11.8,5.4,16.6
	c5.3,7.5,14,12,23.2,12h56.8c15.8,0,28.6-12.8,28.7-28.7V224.3C449.3,208.5,436.4,195.6,420.6,195.6L420.6,195.6z M419.1,395.4
	c0,5.8-4.7,10.5-10.5,10.5h-43.3V225.8h43.3c5.8,0,10.5,4.7,10.5,10.5V395.4z"/>
<path class="st1" d="M406.6,209.5h-56.8c-4,0-7.9,0.8-11.5,2.2c-10,3.5-16.7,12.9-17,23.4v164.5c0.4,11.5,8.3,21.4,19.4,24.4
	c3,0.9,6.1,1.4,9.2,1.4h56.8c15.8,0,28.7-11.5,28.7-25.7V235.1C435.2,221,422.4,209.5,406.6,209.5z M419.1,395.4
	c0,5.8-4.7,10.5-10.5,10.5h-43.3v-7.6h-14V236.5h14v-10.7h43.3c5.8,0,10.5,4.7,10.5,10.5V395.4z"/>
<path class="st2" d="M420.6,440h-56.8c-18,0-32.6-14.6-32.6-32.6V224.3c0-18,14.6-32.6,32.6-32.6h56.8c18,0,32.6,14.6,32.6,32.6
	v183.1C453.2,425.4,438.6,440,420.6,440L420.6,440z M363.8,199.6c-13.6,0-24.6,11-24.6,24.6v183.1c0,13.6,11,24.6,24.6,24.6h56.8
	c13.6,0,24.6-11,24.6-24.6V224.3c0-13.6-11-24.6-24.6-24.6L363.8,199.6z M410.8,409.9h-49.5V221.8h49.5c6.8,0,12.3,5.5,12.3,12.3
	v163.4C423.1,404.4,417.6,409.9,410.8,409.9L410.8,409.9z M369.3,401.9h41.5c2.4,0,4.3-2,4.3-4.4V234.1c0-2.4-1.9-4.3-4.3-4.3h-41.5
	V401.9z"/>
<path class="st3" d="M90.7,123.7v362.3c0,12.2,9.9,22.1,22.1,22.1c0,0,0,0,0,0h234c12.2,0,22.1-9.9,22.1-22.1c0,0,0,0,0,0V123.7
	L90.7,123.7z"/>
<path class="st4" d="M368.9,123.7v362.2c0,12.2-9.8,22.1-22,22.1c0,0-0.1,0-0.1,0h-47.7c12.2,0,22-9.8,22.1-22c0,0,0-0.1,0-0.1
	V123.7L368.9,123.7z"/>
<g class="st5">
	<path class="st6" d="M90.7,137h278.2v322.4H90.7V137z"/>
</g>
<g class="st5">
	<path class="st7" d="M321.1,137h47.7v322.4h-47.7L321.1,137z"/>
</g>
<g class="st8">
	<path class="st9" d="M151.2,195.6c-4.4,0-7.9,3.5-7.9,7.9c0,0,0,0,0,0v24.9c0,4.4,3.5,7.9,7.9,7.9c4.3,0,7.9-3.5,7.9-7.9v-24.9
		C159.1,199.2,155.5,195.6,151.2,195.6C151.2,195.6,151.2,195.6,151.2,195.6L151.2,195.6z"/>
</g>
<g class="st8">
	<path class="st9" d="M151.2,253.4c-4.4,0-7.9,3.5-7.9,7.9v159.9c0,4.4,3.5,7.9,7.9,7.9c4.3,0,7.9-3.5,7.9-7.9V261.2
		C159.1,256.9,155.5,253.4,151.2,253.4C151.2,253.4,151.2,253.4,151.2,253.4L151.2,253.4z"/>
</g>
<path class="st2" d="M346.8,512h-234c-14.4,0-26.1-11.7-26.1-26.1V119.7h286.2v366.3C372.9,500.3,361.2,512,346.8,512z M94.7,127.7
	v358.3c0,10,8.1,18.1,18.1,18.1h234c10,0,18.1-8.1,18.1-18.1V127.7H94.7z"/>
<path class="st10" d="M361.2,64.7c-1.7-23.1-18.9-41.5-40.4-41.9c-6-0.1-11.9,1.2-17.3,3.9c-6.9-12.8-20-21-34.5-21.5
	c-11.3-0.1-22.1,4.5-29.8,12.8C231.9,9.4,221.3,4.3,210,4c-15.7,0.1-30,9-36.9,23.1c-6.4-4.8-14.2-7.5-22.2-7.7
	c-23-0.5-42.1,19.6-42.6,44.9c0,0.1,0,0.2,0,0.3c-1-0.1-2-0.4-3-0.4c-23-0.5-42.1,19.6-42.6,44.9s17.7,46.1,40.8,46.6
	c6.9,0.1,13.6-1.7,19.6-5.2c6.9,6.2,15.8,9.8,25,10c8.7-0.4,16.3-5.7,19.8-13.7c0.9,6,13.8,9.9,17.9,10c14.1,0.3,20.8-6.9,28.6-18.5
	c7.3,9.1,18.2,14.5,29.8,14.9c10.2,0.1,20.1-3.8,27.5-10.8c14.6,15.4,38.9,16,54.3,1.3c0.3-0.3,0.5-0.5,0.8-0.8
	c7.2,7.7,17.1,12.2,27.6,12.5c23,0.5,42.1-19.7,42.6-44.9C397.4,87.3,381.8,67.9,361.2,64.7L361.2,64.7z"/>
<path class="st11" d="M342.4,43.9c-0.4-5.6-1.7-11.1-3.9-16.2c8.8,4.9,15.6,12.7,19.2,22.1C353.1,46.7,347.8,44.7,342.4,43.9z"/>
<path class="st4" d="M396.9,110.6c-0.5,25.3-19.6,45.4-42.6,44.9c-10.5-0.3-20.4-4.8-27.6-12.4c-7.5,7.3-17.6,11.4-28.1,11.3
	c-10.2-0.3-19.9-4.6-27-11.9c-15.4,14.8-39.8,14.3-54.6-1c-0.9-1-1.8-2-2.6-3c-7.8,11.6-14.5,18.7-28.6,18.5c-4-0.1-17-4-17.9-10
	c-3.4,8-11.1,13.3-19.8,13.7c-9.3-0.3-18.2-3.8-25.1-10c-5.9,3.4-12.7,5.2-19.6,5.2c-16.2-0.7-30.5-10.7-36.6-25.7
	c5.4,3,11.6,4.7,17.8,4.8c6.9,0,13.7-1.7,19.6-5.2c6.9,6.2,15.7,9.8,25,10c8.7-0.3,16.4-5.7,19.8-13.7c1,6,13.9,9.9,17.9,10
	c14.1,0.3,20.9-6.9,28.6-18.5c7.3,9.1,18.2,14.5,29.9,14.9c10.2,0.1,20-3.8,27.4-10.8c14.7,15.4,39,15.9,54.4,1.2
	c0.2-0.2,0.5-0.5,0.7-0.7c7.2,7.6,17.2,12.1,27.7,12.5c23,0.4,42-19.7,42.6-45c0.1-7.1-1.2-14.1-4.1-20.6
	C388.8,77.7,397.6,93.7,396.9,110.6L396.9,110.6z"/>
<path class="st2" d="M148.4,164.7H148c-9.3-0.2-18.2-3.5-25.4-9.3c-6,3-12.5,4.5-19.2,4.4c-12.4-0.3-24.1-5.9-32.1-15.4
	c-8.4-9.8-12.9-22.4-12.6-35.3c0.5-27.1,21-48.8,45.8-48.8c1-11.5,5.8-22.4,13.7-30.8c8.4-9.2,20.3-14.3,32.7-14.1
	c7.3,0.2,14.5,2.2,20.8,6C179.9,8.1,194.4,0,210.1,0c11,0.2,21.4,4.7,29.3,12.4C247.5,5,258.1,1,269.1,1.2
	c14.6,0.5,28.1,8.1,36,20.5c5-2,10.4-2.9,15.8-2.8c22.5,0.5,40.9,18.5,44,42.5c21.2,4.9,36.5,25.5,36.1,49.4
	c-0.5,27.4-21.4,49.2-46.7,48.8c-10.2-0.3-20-4.2-27.6-11.1c-16,13.5-39.4,13.2-55.1-0.6c-16.9,13.8-41.4,12.5-56.8-3
	c-6.7,9.3-14.4,16.4-29.1,16.1c-6.4-0.6-12.4-2.9-17.5-6.7C163.4,160.5,156.2,164.3,148.4,164.7L148.4,164.7z M123.1,146.6
	c1,0,1.9,0.4,2.6,1c6.2,5.6,14.1,8.8,22.5,9h0.2c7-0.5,13.1-4.9,15.8-11.3c0.9-2,3.2-3,5.3-2.1c1.3,0.5,2.2,1.7,2.4,3.1
	c0.4,2.7,10,6.5,14,6.6c11.7,0.3,17.5-5.2,25.2-16.7c1.2-1.8,3.7-2.3,5.5-1.1c0.3,0.2,0.6,0.5,0.9,0.8c6.5,8.2,16.4,13.1,26.9,13.4
	c9.2,0.1,18.1-3.4,24.7-9.8c1.6-1.4,4-1.4,5.5,0.1c13.1,13.8,34.8,14.4,48.6,1.4c0.3-0.3,0.6-0.6,0.9-0.9c1.6-1.5,4.1-1.5,5.6,0.1
	c6.4,6.9,15.4,10.9,24.8,11.3c20.6,0.4,38-18,38.5-41c0.4-21-13.5-39-32.4-41.9c-1.8-0.3-3.2-1.8-3.4-3.7
	c-1.6-21.4-17.3-37.8-36.5-38.2c-5.4-0.1-10.7,1.1-15.5,3.5c-1.9,0.9-4.2,0.2-5.2-1.6c-6.2-11.5-18-19-31.1-19.5
	c-10.2-0.2-19.9,4.1-26.8,11.6c-0.8,0.8-1.9,1.3-3,1.3c-1.1,0-2.2-0.5-2.9-1.4c-6.5-7.8-16.1-12.4-26.3-12.7
	c-14.2,0.1-27.1,8.2-33.2,21c-1,2-3.4,2.7-5.4,1.7c-0.2-0.1-0.3-0.2-0.5-0.3c-5.8-4.3-12.7-6.7-19.9-6.9
	c-10.2-0.1-19.9,4.1-26.8,11.6c-7.5,8-11.6,18.5-11.8,29.4c0,1.2-0.5,2.3-1.3,3.1c-0.8,0.8-1.9,1.2-3.1,1.1c-0.5-0.1-1-0.1-1.5-0.2
	c-0.4-0.1-0.8-0.1-1.2-0.2c-0.2,0-0.5,0-0.7,0c-20.5,0-37.4,18.2-37.8,41c-0.3,10.9,3.4,21.6,10.6,29.9c6.6,7.8,16.1,12.3,26.3,12.6
	c6.2,0.1,12.3-1.5,17.6-4.7C121.7,146.8,122.4,146.6,123.1,146.6L123.1,146.6z"/>
<g>
	
		<ellipse transform="matrix(0.2298 -0.9732 0.9732 0.2298 151.4137 303.3113)" class="st9" cx="267.3" cy="56" rx="17.3" ry="17.3"/>
</g>
<g>
	<circle class="st9" cx="154.1" cy="61" r="17.3"/>
</g>
<g>
	<circle class="st9" cx="225.5" cy="93.2" r="17.3"/>
</g>
<g>
	<circle class="st9" cx="338.4" cy="93.2" r="17.3"/>
</g>
<g>
	<circle class="st9" cx="115.4" cy="103.8" r="17.3"/>
</g>
</svg>
